<svg xmlns="http://www.w3.org/2000/svg" xmlns:xlink="http://www.w3.org/1999/xlink" viewBox="0 0 228 223"><defs><style>.cls-1{fill:url(#radial-gradient);}.cls-2{fill:url(#radial-gradient-2);}.cls-3{fill:url(#radial-gradient-3);}.cls-4{fill:url(#radial-gradient-4);}.cls-5{fill:url(#radial-gradient-5);}.cls-6{fill:url(#radial-gradient-6);}.cls-7{fill:url(#radial-gradient-7);}.cls-8{fill:url(#radial-gradient-8);}.cls-9{fill:#ffc799;opacity:0.31;}.cls-10{fill:url(#radial-gradient-9);}</style><radialGradient id="radial-gradient" cx="-3764.66" cy="1216.76" r="37.64" gradientTransform="matrix(0.89, 0.46, 0.46, -0.88, 2882.64, 2906.19)" gradientUnits="userSpaceOnUse"><stop offset="0.09" stop-color="#ffc240"/><stop offset="0.4" stop-color="#936627"/><stop offset="0.55" stop-color="#633d1c"/><stop offset="1" stop-color="#633d1c"/></radialGradient><radialGradient id="radial-gradient-2" cx="-7284.04" cy="-599.97" r="13.32" gradientTransform="matrix(-0.89, 0.46, -0.46, -0.88, -6619.64, 2906.19)" xlink:href="#radial-gradient"/><radialGradient id="radial-gradient-3" cx="-4123.08" cy="98.56" r="176.19" gradientTransform="matrix(-0.97, 0, 0, 1.02, -3929.23, -13.23)" gradientUnits="userSpaceOnUse"><stop offset="0.09" stop-color="#ffc240"/><stop offset="0.21" stop-color="#dda538"/><stop offset="0.45" stop-color="#885d24"/><stop offset="0.56" stop-color="#613c1b"/><stop offset="1" stop-color="#613c1b"/></radialGradient><radialGradient id="radial-gradient-4" cx="-49.58" cy="118.45" r="176.19" gradientTransform="translate(253.23 -13.23) scale(0.97 1.02)" xlink:href="#radial-gradient-3"/><radialGradient id="radial-gradient-5" cx="313.05" cy="132.92" r="124.42" gradientTransform="matrix(0.09, -0.83, 0.99, 0.08, -56.54, 479.97)" gradientUnits="userSpaceOnUse"><stop offset="0.09" stop-color="#ffc240"/><stop offset="0.11" stop-color="#f8bc3e"/><stop offset="0.42" stop-color="#7f561e"/><stop offset="0.55" stop-color="#4f2e11"/><stop offset="1" stop-color="#4f2e11"/></radialGradient><radialGradient id="radial-gradient-6" cx="297.57" cy="-88.72" fx="390.14613764151443" fy="-3.184717760131889" r="126.04" gradientTransform="matrix(0.09, -0.83, 0.99, 0.08, 150.3, 300.93)" gradientUnits="userSpaceOnUse"><stop offset="0.09" stop-color="#ffc240"/><stop offset="0.36" stop-color="#b57c2b"/><stop offset="0.55" stop-color="#854e1d"/><stop offset="1" stop-color="#854e1d"/></radialGradient><radialGradient id="radial-gradient-7" cx="344.14" cy="-88.72" r="119.31" gradientTransform="matrix(0.09, -0.83, 0.99, 0.08, 191.42, 339.49)" gradientUnits="userSpaceOnUse"><stop offset="0.09" stop-color="#ffc363"/><stop offset="0.34" stop-color="#b56936"/><stop offset="0.37" stop-color="#ad6633"/><stop offset="0.55" stop-color="#7d5624"/><stop offset="1" stop-color="#7d5624"/></radialGradient><radialGradient id="radial-gradient-8" cx="320.77" cy="-1.03" r="58.23" gradientTransform="matrix(0.09, -0.83, 0.96, 0.08, 83.51, 385.89)" gradientUnits="userSpaceOnUse"><stop offset="0.09" stop-color="#ffc240"/><stop offset="0.3" stop-color="#d59737"/><stop offset="0.55" stop-color="#a6672e"/><stop offset="1" stop-color="#a6672e"/></radialGradient><radialGradient id="radial-gradient-9" cx="114.53" cy="200.6" r="107.64" gradientTransform="translate(0 0.5)" xlink:href="#radial-gradient"/></defs><title>the gold</title><g id="Layer_2" data-name="Layer 2"><g id="Layer_1-2" data-name="Layer 1"><polygon class="cls-1" points="41 116.48 59 100.55 85 134.4 41 116.48"/><polygon class="cls-2" points="181 111.5 164 100.55 138 134.4 181 111.5"/><polygon class="cls-3" points="50 71.68 0 131.41 26 155.3 100 223 42 133.4 15 130.41 50 71.68"/><polygon class="cls-4" points="178 71.68 228 131.41 202 155.3 128 223 186 133.4 213 130.41 178 71.68"/><polygon class="cls-5" points="158 79.64 113 140.37 67 79.64 113 94.6 158 79.64"/><polygon class="cls-6" points="113 0 67 79.64 113 94.6 113 0"/><polygon class="cls-7" points="158 79.64 113 0 113 94.6 158 79.64"/><polygon class="cls-8" points="112.92 42.08 89.89 87.07 112.92 116.36 135 87.07 112.92 42.08"/><polygon class="cls-9" points="89.89 87.07 112.92 94.62 135 87.07 112.92 116.36 89.89 87.07"/><polygon class="cls-10" points="152 142.36 114 200.1 113 201.1 112 200.1 74 142.36 101.68 158.18 113 177.21 124.32 158.18 152 142.36"/></g></g></svg>