<svg xmlns="http://www.w3.org/2000/svg" xmlns:xlink="http://www.w3.org/1999/xlink" viewBox="0 0 246 223"><defs><style>.cls-1{fill:url(#radial-gradient);}.cls-2{fill:url(#radial-gradient-2);}.cls-3{fill:url(#radial-gradient-3);}.cls-4{fill:url(#radial-gradient-4);}.cls-5{fill:url(#radial-gradient-5);}.cls-6{fill:url(#radial-gradient-6);}.cls-7{fill:url(#radial-gradient-7);}.cls-8{fill:url(#radial-gradient-8);}.cls-9{fill:url(#radial-gradient-9);}.cls-10{fill:url(#radial-gradient-10);}.cls-11{fill:#99ecff;opacity:0.31;}.cls-12{fill:url(#radial-gradient-11);}.cls-13{fill:url(#radial-gradient-12);}</style><radialGradient id="radial-gradient" cx="-4083.64" cy="-1292.65" r="41.83" gradientTransform="matrix(0.49, -0.87, -0.87, -0.49, 932.25, -4101.34)" gradientUnits="userSpaceOnUse"><stop offset="0.09" stop-color="#00aeff"/><stop offset="0.39" stop-color="#1060a0"/><stop offset="0.55" stop-color="#183870"/><stop offset="1" stop-color="#183870"/></radialGradient><radialGradient id="radial-gradient-2" cx="-6042.46" cy="2153.56" r="41.83" gradientTransform="matrix(-0.49, -0.87, 0.87, -0.49, -4650.25, -4101.34)" xlink:href="#radial-gradient"/><radialGradient id="radial-gradient-3" cx="2721.41" cy="207.33" r="282.18" gradientTransform="translate(-2524.53 -67.13) scale(0.93 1.23)" xlink:href="#radial-gradient"/><radialGradient id="radial-gradient-4" cx="2750.91" cy="309.71" r="334.17" gradientTransform="translate(-2524.53 -67.13) scale(0.93 1.23)" gradientUnits="userSpaceOnUse"><stop offset="0" stop-color="#0d589e"/><stop offset="0.5" stop-color="#29dbff"/><stop offset="0.53" stop-color="#26cdf5"/><stop offset="0.63" stop-color="#1da4d6"/><stop offset="0.74" stop-color="#1683be"/><stop offset="0.83" stop-color="#116bac"/><stop offset="0.92" stop-color="#0e5da2"/><stop offset="1" stop-color="#0d589e"/></radialGradient><radialGradient id="radial-gradient-5" cx="-1451.96" cy="208.14" r="282.18" gradientTransform="matrix(-0.93, 0, 0, 1.23, -1097.47, -67.13)" xlink:href="#radial-gradient"/><radialGradient id="radial-gradient-6" cx="-1422.46" cy="310.52" r="334.17" gradientTransform="matrix(-0.93, 0, 0, 1.23, -1097.47, -67.13)" xlink:href="#radial-gradient-4"/><radialGradient id="radial-gradient-7" cx="120.47" cy="187.02" r="64.17" gradientTransform="matrix(0.1, -1.01, 1.02, 0.1, -81.53, 293.66)" gradientUnits="userSpaceOnUse"><stop offset="0.09" stop-color="#00aeff"/><stop offset="0.41" stop-color="#125c8c"/><stop offset="0.55" stop-color="#1a395c"/><stop offset="1" stop-color="#1a395c"/></radialGradient><radialGradient id="radial-gradient-8" cx="150.15" cy="50.8" r="119.42" gradientTransform="matrix(0.1, -1, 1.02, 0.1, 83.98, 200.43)" gradientUnits="userSpaceOnUse"><stop offset="0.09" stop-color="#00aeff"/><stop offset="0.34" stop-color="#1478b5"/><stop offset="0.37" stop-color="#1672ad"/><stop offset="0.55" stop-color="#244e7d"/><stop offset="1" stop-color="#244e7d"/></radialGradient><radialGradient id="radial-gradient-9" cx="-197.53" cy="728.51" fx="-111.92464062336602" fy="807.6068855798527" r="116.55" gradientTransform="matrix(0.1, -1.1, 1.11, 0.11, -691.25, -239.59)" gradientUnits="userSpaceOnUse"><stop offset="0.09" stop-color="#00aeff"/><stop offset="0.4" stop-color="#146499"/><stop offset="0.55" stop-color="#1e4169"/><stop offset="1" stop-color="#1e4169"/></radialGradient><radialGradient id="radial-gradient-10" cx="124.35" cy="136.5" r="62.13" gradientTransform="matrix(0.1, -1.01, 0.98, 0.1, -21.82, 251.9)" gradientUnits="userSpaceOnUse"><stop offset="0" stop-color="#0b5b8a"/><stop offset="0.02" stop-color="#0f6a9b"/><stop offset="0.05" stop-color="#1583ba"/><stop offset="0.08" stop-color="#1b98d3"/><stop offset="0.12" stop-color="#1fa9e7"/><stop offset="0.17" stop-color="#22b4f5"/><stop offset="0.22" stop-color="#23bbfd"/><stop offset="0.32" stop-color="#24bdff"/><stop offset="0.47" stop-color="#1b9ad6"/><stop offset="0.62" stop-color="#147fb5"/><stop offset="0.76" stop-color="#0f6b9d"/><stop offset="0.89" stop-color="#0c5f8f"/><stop offset="1" stop-color="#0b5b8a"/></radialGradient><radialGradient id="radial-gradient-11" cx="126.48" cy="74.26" r="47.25" gradientTransform="translate(0 1.45) scale(1 1.01)" gradientUnits="userSpaceOnUse"><stop offset="0.09" stop-color="#00aeff"/><stop offset="0.14" stop-color="#02a0eb"/><stop offset="0.43" stop-color="#0e4b72"/><stop offset="0.55" stop-color="#132942"/><stop offset="1" stop-color="#132942"/></radialGradient><radialGradient id="radial-gradient-12" cx="953.21" cy="56.05" r="167.67" gradientTransform="translate(-567.23 146.53) scale(0.73 0.67)" xlink:href="#radial-gradient"/></defs><title>the plat</title><g id="Layer_2" data-name="Layer 2"><g id="Layer_1-2" data-name="Layer 1"><polygon class="cls-1" points="44 114 67 103 96 146 44 114"/><polygon class="cls-2" points="202 114 179 103 150 146 202 114"/><polygon class="cls-3" points="84 194 33.37 167.28 0 114.52 62 45 24 103 16 115 45.41 141.51 54.68 151.33 63.02 163.6 84 194"/><polygon class="cls-4" points="41 165 41 150 16 115 42.63 136.6 54.68 151.33 63.02 163.6 84 194 41 165"/><polygon class="cls-5" points="162 195 212.63 168.28 246 115.52 184 46 222 104 230 116 200.59 142.51 191.32 152.33 182.98 164.6 162 195"/><polygon class="cls-6" points="205 166 205 151 230 116 203.37 137.6 191.32 152.33 182.98 164.6 162 195 205 166"/><polygon class="cls-7" points="151.16 102.28 123.84 135 123.8 134.96 98.35 97.84 123.84 111.06 151.16 102.28"/><polygon class="cls-8" points="176.71 80.45 151.19 102.29 124.03 110.94 123.82 111.01 123.81 111.01 123.6 111.08 123.6 0 123.7 0.16 152.54 46.76 176.71 80.45"/><polygon class="cls-9" points="123.59 0 68.29 80.45 124.11 111.97 123.59 0"/><path class="cls-10" d="M148.8,97.84q-12.31,18.7-25,37.12L99.42,97.84l24.42-53.57Z"/><polygon class="cls-11" points="148.8 97.84 143.43 106.54 136.99 116.32 123.84 135 123.8 134.96 99.42 97.84 123.84 111.06 148.8 97.84"/><polygon class="cls-12" points="68.29 80.45 124.11 158.72 176.71 80.45 148.8 97.84 124.11 134.8 99.32 97.84 68.29 80.45"/><polygon class="cls-13" points="74 148.39 124 223 174 145 142.27 166 124 191.63 104.77 167 74 148.39"/></g></g></svg>