<svg xmlns="http://www.w3.org/2000/svg" viewBox="0 0 512 765.48"><defs><style>.cls-1,.cls-2{fill:#00f9ff;}.cls-1{stroke:#00f9ff;stroke-miterlimit:10;stroke-width:3.82px;}.cls-3{fill:none;}</style></defs><title>GemPad logo svg</title><g id="Layer_2" data-name="Layer 2"><g id="Layer_1-2" data-name="Layer 1"><path class="cls-1" d="M263.88,620.74l15.17-21.56L300.5,394.81ZM233.79,599.6l15.14,21.14L210.5,393.81Z"/><path class="cls-2" d="M256.84,0,0,431.42,256.84,765.48,512,429.74ZM207.5,392.81l7.56,59.5,33.87,168.43L233.79,599.6,104.5,429.81l75-81,77-194L336.14,350.4l69.36,81.41L279.05,599.18l-15.17,21.56,32-163.47,7.64-64.46Z"/><polygon class="cls-3" points="405.9 418.92 279.05 599.18 263.88 620.74 295.86 457.27 308.73 391.51 202.84 391.51 215.06 452.31 248.93 620.74 233.79 599.6 104.42 418.92 179.17 350.4 253.91 154.81 336.14 350.4 405.9 418.92"/></g></g></svg>